<svg width="160" height="160" viewBox="0 0 160 160" xmlns="http://www.w3.org/2000/svg"><defs><radialGradient cx="50.003%" cy="50.003%" fx="50.003%" fy="50.003%" r="53.497%" gradientTransform="matrix(.8761 0 0 1 .062 0)" id="a"><stop stop-color="#706D6A" offset="0%"/><stop stop-color="#BFBFBF" offset="100%"/></radialGradient></defs><g fill-rule="nonzero" fill="none"><path d="M112.896 143.143L100.76 75.535c-.617-2.588-2.674-4.66-5.246-5.177l-60.168-8.593-.412-1.657L33.7 55.45c-.617-1.967-2.263-3.416-4.217-3.727l-8.228-1.035-17.69-2.589c-1.543-.414-3.086.518-3.497 2.071-.103.621-.103 1.139.102 1.76l2.88 12.424 11.725 64.813a6.702 6.702 0 002.263 3.727c.823.725 1.851 1.242 2.983 1.346l88.761 12.735c1.132.103 2.263-.104 3.292-.518.72-.828 1.13-2.07.822-3.313z" fill="url(#a)" transform="translate(7 7)"/><path d="M109.631 7L49 39.658S63.152 86.501 94.204 111l55.973-33.257S123.733 59.31 109.631 7z" fill="#E1DFDD"/><path d="M144.832 88.927l-37.309-5.3-52.897-7.585c-2.702-.312-5.196 1.143-6.443 3.533L22.409 136.1a3.336 3.336 0 00.208 3.533 6.299 6.299 0 003.014 1.455l89.687 12.885c1.143.103 2.286-.104 3.325-.52 1.351-.623 2.494-1.663 3.118-3.013l25.773-56.527c.936-1.558.416-3.533-1.143-4.468-.52-.312-1.04-.416-1.559-.52z" fill="#BFBFBF"/></g></svg>