<svg xmlns="http://www.w3.org/2000/svg" xmlns:xlink="http://www.w3.org/1999/xlink" width="152" height="139"><defs><path id="a" d="M.446.052h72.843V51H.446z"/></defs><g fill="none" fill-rule="evenodd"><g fill="#E1DFDD"><path d="M110.864.007c-11.24.37-16.707 12.96-15.048 25.182 1.413 10.565 12.223 13.33 12.53 21.928.307 9.03-11.056 17.32-5.835 26.78 5.22 9.458 13.205 7.431 10.319 22.418h14.249s-3.685-7.248-.614-13.144c3.07-5.897 11.3-17.75 4.36-24.999-6.94-7.247-5.16-15.908-3.193-19.47 1.965-3.562 5.835-10.81 3.93-21.68-1.965-10.873-13.45-17.26-20.698-17.015"/><path d="M135.8 19.314c10.258.369 15.172 10.256 13.575 19.715-1.351 8.17-11.301 10.196-11.67 16.83-.368 7.002 10.012 13.513 5.159 20.76-4.852 7.247-12.1 5.65-9.643 17.32l-13.021-.123s3.44-5.589.676-10.196c-2.764-4.606-10.196-13.88-3.747-19.408 6.449-5.528 4.852-12.285 3.07-15.049-1.78-2.825-5.281-8.476-3.377-16.829 1.78-8.414 12.346-13.267 18.979-13.02"/><path d="M148.46 93.289H85.508a3.017 3.017 0 0 0-2.88 3.986l8.638 25.615c1.107 3.396 4.28 5.61 7.824 5.61h35.64c3.543 0 6.717-2.288 7.824-5.61l8.637-25.615c.738-1.92-.664-3.986-2.731-3.986"/></g><g fill="#E1DFDD"><path d="M42.819 29.976c0-3.316-1.167-6.141-3.5-8.475-2.365-2.334-5.19-3.5-8.476-3.5-3.316 0-6.141 1.166-8.474 3.5-2.334 2.334-3.501 5.159-3.501 8.475v70.148c0 3.286 1.167 6.095 3.5 8.429 2.334 2.334 5.159 3.5 8.475 3.5 3.286 0 6.11-1.166 8.476-3.5 2.333-2.334 3.5-5.143 3.5-8.43V29.977z"/><path d="M51.155 52.545c-2.518 3.009-5.297 4.514-8.337 4.514h-9.672a23.424 23.424 0 0 0-2.303 1.658c-1.597 1.35-2.595 2.579-2.994 3.685-1.29 3.562 3.7 5.343 14.97 5.343 8.843 0 15.291-3.593 19.344-10.778 2.672-4.79 4.146-10.824 4.422-18.102.061-1.473-.43-2.748-1.474-3.822-1.044-1.075-2.303-1.613-3.777-1.613-1.382 0-2.579.476-3.593 1.428-1.044.952-1.596 2.119-1.658 3.5-.307 5.927-1.949 10.656-4.928 14.187m-40.992 4.514c-.983-.952-2.15-1.428-3.5-1.428-1.26 0-2.365.415-3.317 1.244-.952.86-1.49 1.919-1.612 3.178-.614 5.588-.722 9.549-.322 11.883.49 3.1 2.072 6.679 4.744 10.732 2.702 4.084 6.832 6.433 12.39 7.047 2.763.338 5.266.246 7.507-.276.86-2.58 1.367-4.96 1.52-7.14.369-4.391-1.12-5.62-4.467-3.684-3.562 2.088-6.48 1.596-8.752-1.474-1.842-2.487-2.763-5.435-2.763-8.844v-7.738c0-1.351-.476-2.517-1.428-3.5m13.081-19.99c-.308.307-.462.691-.462 1.151v6.679c0 .461.154.86.462 1.198.306.307.69.46 1.15.46.43 0 .815-.153 1.153-.46.306-.338.46-.737.46-1.198V38.22c0-.46-.154-.844-.46-1.151a1.667 1.667 0 0 0-1.152-.461c-.46 0-.845.154-1.151.461m12.251-8.659c-.46 0-.844.154-1.15.46-.308.308-.462.69-.462 1.152v6.725c0 .43.154.813.461 1.15.307.308.69.462 1.151.462.43 0 .814-.154 1.151-.461.307-.338.461-.721.461-1.151v-6.725c0-.461-.154-.844-.46-1.151a1.663 1.663 0 0 0-1.152-.461"/><path d="M33.607 49.229a1.56 1.56 0 0 0-.461 1.15v6.68c0 .46.154.86.46 1.198.339.307.723.46 1.152.46.46 0 .845-.153 1.152-.46.307-.338.46-.737.46-1.198v-6.68c0-.46-.153-.843-.46-1.15-.307-.307-.691-.461-1.152-.461-.43 0-.813.154-1.151.46m-9.442 9.903a1.667 1.667 0 0 0-.461 1.151v6.725c0 .43.154.814.46 1.152.339.307.723.46 1.152.46.46 0 .845-.153 1.152-.46.307-.338.46-.722.46-1.152v-6.725c0-.429-.153-.813-.46-1.15-.307-.308-.691-.462-1.152-.462-.43 0-.813.154-1.151.461m10.179 12.114a1.667 1.667 0 0 0-.461 1.15v6.726c0 .46.154.845.46 1.152.308.307.692.46 1.152.46.43 0 .814-.153 1.152-.46.307-.307.46-.691.46-1.152v-6.725c0-.43-.153-.813-.46-1.151a1.667 1.667 0 0 0-1.152-.461c-.46 0-.844.154-1.151.46m-10.179 8.338a1.56 1.56 0 0 0-.461 1.15v6.68c0 .46.154.86.46 1.198.339.307.723.46 1.152.46.46 0 .845-.153 1.152-.46.307-.338.46-.737.46-1.198v-6.68c0-.46-.153-.843-.46-1.15a1.491 1.491 0 0 0-1.152-.507c-.43 0-.813.169-1.151.507m8.06 16.858c0 .43.169.813.507 1.15.307.308.69.461 1.15.461.43 0 .815-.153 1.153-.46.307-.338.46-.722.46-1.152v-6.725c0-.43-.153-.813-.46-1.15a1.667 1.667 0 0 0-1.152-.462c-.46 0-.844.154-1.151.461-.338.338-.507.721-.507 1.151v6.725zm29.478-59.371c-.307.307-.461.691-.461 1.151v6.679c0 .461.154.86.461 1.198.338.307.722.46 1.151.46.461 0 .845-.153 1.152-.46.307-.338.46-.737.46-1.198V38.22c0-.46-.153-.844-.46-1.151-.307-.307-.691-.461-1.152-.461-.429 0-.813.154-1.151.461m-7.462 12.666c-.338.338-.507.722-.507 1.151v6.725c0 .43.17.814.507 1.152.307.307.691.46 1.152.46.43 0 .813-.153 1.151-.46.307-.338.461-.722.461-1.152v-6.725c0-.429-.154-.813-.46-1.15a1.667 1.667 0 0 0-1.152-.462c-.46 0-.845.154-1.152.461M5.234 59.638c-.307.307-.46.691-.46 1.151v6.725c0 .43.153.814.46 1.152.338.307.722.46 1.152.46.46 0 .844-.153 1.151-.46.307-.338.461-.722.461-1.152v-6.725c0-.46-.154-.844-.46-1.151a1.566 1.566 0 0 0-1.152-.461c-.43 0-.814.154-1.152.461m6.034 14.877c0-.46-.153-.844-.46-1.15a1.725 1.725 0 0 0-1.198-.462c-.43 0-.814.154-1.152.461-.307.307-.46.69-.46 1.151v6.725c0 .43.153.813.46 1.151.338.307.722.461 1.152.461.46 0 .86-.154 1.198-.46.307-.339.46-.722.46-1.152v-6.725zm53.26 26.557H3.316a3.316 3.316 0 0 0-3.272 3.85l3.453 21.14c.448 2.614 1.691 4.772 3.73 6.476 1.953 1.632 4.455 2.462 7 2.462H53.63c2.575 0 4.855-.827 6.841-2.482 1.986-1.692 3.2-3.807 3.641-6.344l3.684-21.22a3.316 3.316 0 0 0-3.267-3.882"/></g><path fill="#E1DFDD" d="M25.244 37.069c-.308.307-.462.691-.462 1.151v6.679c0 .461.154.86.462 1.198.306.307.69.46 1.15.46.43 0 .815-.153 1.153-.46.306-.338.46-.737.46-1.198V38.22c0-.46-.154-.844-.46-1.151a1.667 1.667 0 0 0-1.152-.461c-.46 0-.845.154-1.151.461m12.251-8.659c-.46 0-.844.154-1.15.46-.308.308-.462.69-.462 1.152v6.725c0 .43.154.813.461 1.15.307.308.69.462 1.151.462.43 0 .814-.154 1.151-.461.307-.338.461-.721.461-1.151v-6.725c0-.461-.154-.844-.46-1.151a1.663 1.663 0 0 0-1.152-.461m-1.888 20.819a1.56 1.56 0 0 0-.461 1.15v6.68c0 .46.154.86.46 1.198.339.307.723.46 1.152.46.46 0 .845-.153 1.152-.46.307-.338.46-.737.46-1.198v-6.68c0-.46-.153-.843-.46-1.15-.307-.307-.691-.461-1.152-.461-.43 0-.813.154-1.151.46m-9.442 9.903a1.667 1.667 0 0 0-.461 1.151v6.725c0 .43.154.814.46 1.152.339.307.723.46 1.152.46.46 0 .845-.153 1.152-.46.307-.338.46-.722.46-1.152v-6.725c0-.429-.153-.813-.46-1.15-.307-.308-.691-.462-1.152-.462-.43 0-.813.154-1.151.461m10.179 12.114a1.667 1.667 0 0 0-.461 1.15v6.726c0 .46.154.845.46 1.152.308.307.692.46 1.152.46.43 0 .814-.153 1.152-.46.307-.307.46-.691.46-1.152v-6.725c0-.43-.153-.813-.46-1.151a1.667 1.667 0 0 0-1.152-.461c-.46 0-.844.154-1.151.46m-10.179 8.338a1.56 1.56 0 0 0-.461 1.15v6.68c0 .46.154.86.46 1.198.339.307.723.46 1.152.46.46 0 .845-.153 1.152-.46.307-.338.46-.737.46-1.198v-6.68c0-.46-.153-.843-.46-1.15a1.491 1.491 0 0 0-1.152-.507c-.43 0-.813.169-1.151.507m8.06 16.858c0 .43.169.813.507 1.15.307.308.69.461 1.15.461.43 0 .815-.153 1.153-.46.307-.338.46-.722.46-1.152v-6.725c0-.43-.153-.813-.46-1.15a1.667 1.667 0 0 0-1.152-.462c-.46 0-.844.154-1.151.461-.338.338-.507.721-.507 1.151v6.725zm29.478-59.371c-.307.307-.461.691-.461 1.151v6.679c0 .461.154.86.461 1.198.338.307.722.46 1.151.46.461 0 .845-.153 1.152-.46.307-.338.46-.737.46-1.198V38.22c0-.46-.153-.844-.46-1.151-.307-.307-.691-.461-1.152-.461-.429 0-.813.154-1.151.461M7.234 59.638c-.307.307-.46.691-.46 1.151v6.725c0 .43.153.814.46 1.152.338.307.722.46 1.152.46.46 0 .844-.153 1.151-.46.307-.338.461-.722.461-1.152v-6.725c0-.46-.154-.844-.46-1.151a1.566 1.566 0 0 0-1.152-.461c-.43 0-.814.154-1.152.461m6.034 14.877c0-.46-.153-.844-.46-1.15a1.725 1.725 0 0 0-1.198-.462c-.43 0-.814.154-1.152.461-.307.307-.46.69-.46 1.151v6.725c0 .43.153.813.46 1.151.338.307.722.461 1.152.461.46 0 .86-.154 1.198-.46.307-.339.46-.722.46-1.152v-6.725z"/><path fill="#80C571" d="M96.649 52.02c-5.583 4.952-13.022 6.46-19.73 4.693-.962-6.871 1.428-14.081 7.01-19.033 5.584-4.952 13.023-6.46 19.73-4.685.959 6.867-1.432 14.077-7.01 19.025"/><path fill="#80C571" d="M57.594 60.293c7.083 2.349 14.514.802 19.983-3.466-1.826-6.695-6.866-12.378-13.949-14.727-7.083-2.35-14.514-.802-19.978 3.474 1.828 6.688 6.867 12.372 13.944 14.719"/><path fill="#80C571" d="M76.854 91.606l-.064-.025a2.081 2.081 0 0 1-1.136-2.715c3.533-8.615 4.803-21.865-1.107-31.4-.606-.977-.245-2.266.746-2.846.993-.58 2.14-.158 2.846.747C86.457 66 83.304 81.179 79.504 90.445a2.08 2.08 0 0 1-2.65 1.16"/><g transform="translate(41 88.061)"><mask id="b" fill="#fff"><use xlink:href="#a"/></mask><path fill="#BE8F68" d="M37.135.052H3.629A3.184 3.184 0 0 0 .476 3.663L4.768 35.37C5.98 44.322 13.624 51 22.657 51h28.42c9.034 0 16.677-6.678 17.889-15.63L73.26 3.662a3.185 3.185 0 0 0-3.156-3.61h-32.97z" mask="url(#b)"/></g><path fill="#DFBA95" d="M43.49 75.519c-2.783 0-5.173.998-7.17 2.994-1.943 1.996-2.914 4.386-2.914 7.17s.97 5.174 2.915 7.17c1.996 1.944 4.386 2.916 7.17 2.916h69.258c2.784 0 5.174-.972 7.17-2.916 1.997-1.996 2.995-4.386 2.995-7.17s-.998-5.174-2.995-7.17c-1.996-1.996-4.386-2.994-7.17-2.994H43.49z"/></g></svg>